# xmcd
#
# Track frame offsets: 
#        150
#        41649
#        51396
#        51936
#        60927
#        63114
#        72537
#        79557
#        90411
#        90951
#        98700
#        99591
#        109446
#        110985
#        122379
#        124053
#        136257
#        136581
#        147759
#        149244
#        162663
#        163284
#        172032
#        173706
#        181374
#        185154
#        195927
#        197601
#        206862
#        208455
#        220929
#        241125
#        251952
#        254571
#        264507
#        266505
#        289104
#        310299
#        320532
#        320883
#        331764
#
# Disc length: 4645 seconds
#
# Revision: 0
# Processed by: cddbd v1.5.2PL0 Copyright (c) Steve Scherf et al.
# Submitted via: ExactAudioCopy v0.95b3
#
DISCID=82122329
DTITLE=The Beatles  - The Days In Their Life - Vol.03  FLAC
DYEAR=1900
DGENRE=
TTITLE0=Narrative
TTITLE1=It Won't Be Long
TTITLE2=Narrative
TTITLE3=All I've Got To Do
TTITLE4=Narrative
TTITLE5=All My Loving
TTITLE6=Narrative
TTITLE7=Don't Bother Me
TTITLE8=Narrative
TTITLE9=Little Child
TTITLE10=Narrative
TTITLE11=Till There Was You
TTITLE12=Narrative
TTITLE13=Please Mister Postman
TTITLE14=Narrative
TTITLE15=Roll Over Beethoven
TTITLE16=Narrative
TTITLE17=Hold Me Tight
TTITLE18=Narrative
TTITLE19=You Really Got A Hold On Me
TTITLE20=Narrative
TTITLE21=I Wanna Be Your Man
TTITLE22=Narrative
TTITLE23=I Wanna Be Your Man (The Rolling Stones)
TTITLE24=Narrative
TTITLE25=Devil In Her Heart
TTITLE26=Narrative
TTITLE27=Not A Second Time
TTITLE28=Narrative
TTITLE29=Money (That's What I Want)
TTITLE30=Narrative
TTITLE31=I Want To Hold Your Hand
TTITLE32=Narrative
TTITLE33=This Boy
TTITLE34=Narrative
TTITLE35=963 Christmas Message
TTITLE36=Narrative
TTITLE37=Sie Liebt Dich
TTITLE38=Narrative
TTITLE39=Komm, Gib Mir Deine Hand
TTITLE40=Narrative
EXTD=
EXTT0=
EXTT1=
EXTT2=
EXTT3=
EXTT4=
EXTT5=
EXTT6=
EXTT7=
EXTT8=
EXTT9=
EXTT10=
EXTT11=
EXTT12=
EXTT13=
EXTT14=
EXTT15=
EXTT16=
EXTT17=
EXTT18=
EXTT19=
EXTT20=
EXTT21=
EXTT22=
EXTT23=
EXTT24=
EXTT25=
EXTT26=
EXTT27=
EXTT28=
EXTT29=
EXTT30=
EXTT31=
EXTT32=
EXTT33=
EXTT34=
EXTT35=
EXTT36=
EXTT37=
EXTT38=
EXTT39=
EXTT40=
PLAYORDER=
